<svg width="39" height="39" viewBox="0 0 39 39" fill="none" xmlns="http://www.w3.org/2000/svg">
<path d="M28.3919 13.4158C28.0799 13.2598 27.6119 13.2598 27.2999 13.4158L17.6279 23.3998L13.1039 18.7198C12.7919 18.4078 12.3239 18.4078 12.0119 18.7198C11.6999 19.0318 11.6999 19.4998 11.8559 19.8118L17.0039 24.9598H17.1599C17.1599 24.9598 17.3159 24.9598 17.3159 25.1158H17.9399C17.9399 25.1158 18.0959 25.1158 18.0959 24.9598H18.2519L28.5478 14.5078C28.5478 14.1958 28.5479 13.7278 28.3919 13.4158Z" fill="#3AFFA3"/>
<path d="M19.5 39C8.736 39 0 30.264 0 19.5C0 8.736 8.736 0 19.5 0C30.264 0 39 8.736 39 19.5C39 30.264 30.264 39 19.5 39ZM19.5 1.56C9.672 1.56 1.56 9.672 1.56 19.5C1.56 29.328 9.672 37.44 19.5 37.44C29.328 37.44 37.44 29.328 37.44 19.5C37.44 9.672 29.328 1.56 19.5 1.56Z" fill="#3AFFA3"/>
</svg>
