<svg width="16" height="16" viewBox="0 0 16 16" fill="none" xmlns="http://www.w3.org/2000/svg">
<path d="M15.9813 5.80393C15.9327 5.66126 15.8005 5.56731 15.6509 5.56382H10.0966L8.32975 0.239657C8.27064 0.0586944 8.07239 -0.0422102 7.89153 0.0169363C7.78719 0.0517456 7.70372 0.135262 7.66893 0.239657L5.9021 5.59863H0.347809C0.156509 5.56731 0 5.72041 0 5.91527C0 6.02316 0.0486809 6.12406 0.135641 6.19019L4.60137 9.68743L2.65717 15.5405C2.59457 15.7215 2.69196 15.9198 2.87628 15.9825C2.98411 16.0173 3.10234 15.9999 3.19279 15.9338L8.00284 12.4261L12.8129 15.8537C12.9694 15.965 13.185 15.9303 13.2963 15.7737C13.359 15.6832 13.3763 15.5684 13.345 15.464L11.4182 9.54823L15.8596 6.19368C15.9813 6.10318 16.03 5.94659 15.9813 5.80393Z" fill="#FFB300"/>
</svg>
