<svg width="272" height="44" viewBox="0 0 272 44" fill="none" xmlns="http://www.w3.org/2000/svg">
<g filter="url(#filter0_d_2498_4403)">
<path d="M11.0045 15.7707H15.8891C16.6081 15.7707 17.2019 15.6688 17.6611 15.4695C18.1203 15.2702 18.4682 14.9782 18.7002 14.6075C18.9321 14.2321 19.0481 13.7872 19.0481 13.2681C19.0481 12.4895 18.7976 11.9241 18.292 11.5626C17.7863 11.2011 16.9885 11.025 15.8937 11.025H13.5187V27.0047H16.7612C17.4802 27.0047 18.1435 26.949 18.7512 26.8332C19.3542 26.7173 19.8459 26.4717 20.2217 26.1009C20.5974 25.7255 20.783 25.137 20.783 24.3306C20.783 23.8393 20.6763 23.4454 20.4583 23.1441C20.2402 22.8429 19.948 22.6112 19.5723 22.4536C19.1965 22.296 18.7744 22.1894 18.2966 22.1292C17.8234 22.0736 17.3085 22.0411 16.7612 22.0411H11.0138V16.8598H18.06C19.5305 16.8598 21.0056 17.0267 22.49 17.3557C23.9744 17.6847 25.3336 18.2131 26.5767 18.9314C27.8153 19.6498 28.8173 20.5813 29.5827 21.7167C30.348 22.8568 30.7284 24.2286 30.7284 25.8414C30.7284 27.8574 30.2321 29.4702 29.2394 30.6798C28.2467 31.8894 26.804 32.7653 24.9161 33.3122C23.0281 33.859 20.7459 34.1325 18.0647 34.1325H4V3.89258H17.1833C19.4331 3.89258 21.4417 4.17992 23.2137 4.75459C24.9857 5.32926 26.3912 6.19591 27.4303 7.34526C28.4694 8.49924 28.9843 9.93592 28.9843 11.6646C28.9843 13.3932 28.4647 14.8114 27.4303 16.0071C26.3912 17.2028 24.9857 18.1111 23.2137 18.7275C21.4417 19.3485 19.4331 19.6544 17.1833 19.6544H10.9999V15.7661L11.0045 15.7707Z" fill="white"/>
<path d="M44.7653 3.89258V23.3249C44.7653 24.5345 45.0761 25.5216 45.693 26.2817C46.31 27.0464 47.2702 27.4264 48.569 27.4264C49.8679 27.4264 50.8235 27.0464 51.4451 26.2817C52.062 25.517 52.3728 24.5345 52.3728 23.3249V3.89258H61.8822V24.1915C61.8822 26.3512 61.5297 28.1725 60.8246 29.6556C60.1195 31.1386 59.1454 32.3343 57.9068 33.238C56.6683 34.1464 55.2488 34.8091 53.6485 35.2262C52.0481 35.6433 50.355 35.8519 48.569 35.8519C46.7831 35.8519 45.09 35.6433 43.4896 35.2262C41.8893 34.8091 40.4698 34.1464 39.2313 33.238C37.9927 32.3297 37.0186 31.1386 36.3135 29.6556C35.6084 28.1725 35.2559 26.3512 35.2559 24.1915V3.89258H44.7653Z" fill="white"/>
<path d="M77.6168 3.89258V34.1232H67.7178V3.89258H77.6168ZM74.2862 34.1232V25.9156H79.1708C80.0058 25.9156 80.8547 25.846 81.7221 25.6977C82.5849 25.5541 83.3782 25.2528 84.1018 24.7894C84.8208 24.3306 85.4053 23.64 85.8506 22.7178C86.2959 21.7955 86.5186 20.5581 86.5186 19.0056C86.5186 17.453 86.2959 16.2156 85.8506 15.2934C85.4053 14.3711 84.8208 13.6806 84.1018 13.2218C83.3828 12.7629 82.5896 12.4571 81.7221 12.3134C80.8593 12.1697 80.0058 12.0956 79.1708 12.0956H74.2862V3.89258H79.6022C83.1184 3.89258 86.1382 4.49506 88.657 5.70465C91.1805 6.91425 93.1102 8.64291 94.4508 10.886C95.7914 13.1337 96.4594 15.8402 96.4594 19.0056C96.4594 22.1709 95.7914 24.845 94.4508 27.102C93.1102 29.3636 91.1805 31.0969 88.657 32.3065C86.1336 33.5161 83.1184 34.1186 79.6022 34.1186H74.2862V34.1232Z" fill="white"/>
<path d="M100.351 12.4439C101.214 10.4881 102.411 8.80116 103.937 7.39228C105.463 5.9834 107.249 4.90357 109.295 4.15279C111.341 3.40664 113.544 3.03125 115.91 3.03125C118.275 3.03125 120.562 3.40664 122.608 4.15279C124.654 4.90357 126.44 5.9834 127.966 7.39228C129.492 8.80116 130.675 10.4881 131.51 12.4439C132.345 14.4042 132.762 16.5917 132.762 19.0063C132.762 21.4208 132.354 23.6361 131.528 25.6335C130.707 27.6356 129.548 29.3689 128.049 30.838C126.551 32.3072 124.77 33.438 122.71 34.2258C120.65 35.0183 118.382 35.4123 115.9 35.4123C113.419 35.4123 111.15 35.0183 109.091 34.2258C107.031 33.4333 105.25 32.3025 103.752 30.838C102.253 29.3689 101.094 27.6356 100.272 25.6335C99.4514 23.6314 99.0386 21.4208 99.0386 19.0063C99.0386 16.5917 99.47 14.3996 100.337 12.4439H100.351ZM109.949 22.8946C110.496 24.0161 111.276 24.8874 112.282 25.5084C113.289 26.1294 114.499 26.4353 115.914 26.4353C117.329 26.4353 118.535 26.1248 119.546 25.5084C120.553 24.8874 121.332 24.0207 121.88 22.8946C122.427 21.773 122.701 20.4754 122.701 19.0063C122.701 17.5371 122.441 16.207 121.921 15.0994C121.402 13.9918 120.646 13.1298 119.653 12.5087C118.66 11.8877 117.413 11.5818 115.914 11.5818C114.504 11.5818 113.293 11.8923 112.282 12.5087C111.271 13.1298 110.496 13.9918 109.949 15.0994C109.402 16.207 109.128 17.5093 109.128 19.0063C109.128 20.5032 109.402 21.7684 109.949 22.8946Z" fill="white"/>
<path d="M183.964 3.89258V34.1232H174.455V3.89258H183.964ZM180.597 3.89258H186.344C189.313 3.89258 191.725 4.30968 193.585 5.14388C195.445 5.97809 196.814 7.16915 197.691 8.70779C198.567 10.2464 199.008 12.1002 199.008 14.2552C199.008 16.4103 198.567 18.227 197.691 19.7842C196.809 21.3367 195.441 22.5324 193.585 23.3666C191.725 24.2008 189.313 24.6179 186.344 24.6179H180.597V17.0591H186.344C187.527 17.0591 188.418 16.8135 189.025 16.3269C189.628 15.8356 189.935 15.1451 189.935 14.2552C189.935 13.3654 189.633 12.6703 189.025 12.1836C188.422 11.6924 187.527 11.4514 186.344 11.4514H180.597V3.89258Z" fill="white"/>
<path d="M213.277 3.89258V34.1232H203.336V3.89258H213.277ZM233.636 3.89258L221.835 18.0601L234.286 34.1278H222.786L210.554 18.366L222.573 3.89721H233.641L233.636 3.89258Z" fill="white"/>
<path d="M247.209 25.9624L247.942 28.1221L244.658 34.1237H233.85L250.925 1.7334L268 34.1237H257.192L253.991 28.4233L254.64 25.9624L250.925 17.625L247.209 25.9624ZM243.016 23.4134H259.01V30.2354H243.016V23.4134Z" fill="white"/>
<path d="M136.366 34.1231H170.521L153.441 28.0381L136.366 34.1231Z" fill="#202020"/>
<path d="M170.521 8.53205L153.441 0L136.366 8.53205V34.1236L153.441 1.72866L170.521 34.1236V8.53205Z" fill="#202020"/>
<path d="M153.53 15.1777L149.875 22.5141L153.442 21.1238L157.125 22.5604L153.53 15.1777Z" fill="#202020"/>
</g>
<defs>
<filter id="filter0_d_2498_4403" x="0" y="0" width="272" height="43.8516" filterUnits="userSpaceOnUse" color-interpolation-filters="sRGB">
<feFlood flood-opacity="0" result="BackgroundImageFix"/>
<feColorMatrix in="SourceAlpha" type="matrix" values="0 0 0 0 0 0 0 0 0 0 0 0 0 0 0 0 0 0 127 0" result="hardAlpha"/>
<feOffset dy="4"/>
<feGaussianBlur stdDeviation="2"/>
<feComposite in2="hardAlpha" operator="out"/>
<feColorMatrix type="matrix" values="0 0 0 0 0 0 0 0 0 0 0 0 0 0 0 0 0 0 0.25 0"/>
<feBlend mode="normal" in2="BackgroundImageFix" result="effect1_dropShadow_2498_4403"/>
<feBlend mode="normal" in="SourceGraphic" in2="effect1_dropShadow_2498_4403" result="shape"/>
</filter>
</defs>
</svg>
