<svg width="147" height="20" viewBox="0 0 147 20" fill="none" xmlns="http://www.w3.org/2000/svg">
<path d="M3.88465 8.74664H6.59362C6.99237 8.74664 7.32167 8.6901 7.57636 8.57958C7.83105 8.46906 8.02399 8.30714 8.15262 8.10152C8.28125 7.89333 8.34557 7.64659 8.34557 7.35873C8.34557 6.92693 8.20665 6.61336 7.92623 6.41289C7.64582 6.21241 7.20333 6.11474 6.59619 6.11474H5.27901V14.9768H7.07727C7.47602 14.9768 7.84391 14.946 8.18092 14.8817C8.51536 14.8175 8.78806 14.6813 8.99644 14.4757C9.20482 14.2675 9.30773 13.941 9.30773 13.4938C9.30773 13.2214 9.24856 13.0029 9.12764 12.8359C9.00673 12.6688 8.84466 12.5403 8.63628 12.4529C8.42789 12.3655 8.19378 12.3064 7.92881 12.273C7.6664 12.2421 7.38084 12.2241 7.07727 12.2241H3.8898V9.35064H7.7976C8.61312 9.35064 9.43121 9.44317 10.2545 9.62566C11.0777 9.80814 11.8315 10.1011 12.5209 10.4995C13.2078 10.8979 13.7635 11.4145 14.188 12.0442C14.6125 12.6765 14.8234 13.4373 14.8234 14.3317C14.8234 15.4498 14.5481 16.3442 13.9976 17.015C13.4471 17.6859 12.647 18.1716 11.5999 18.4749C10.5529 18.7782 9.28715 18.9298 7.80017 18.9298H0V2.15918H7.31138C8.5591 2.15918 9.67304 2.31853 10.6558 2.63724C11.6385 2.95595 12.418 3.43658 12.9943 4.07399C13.5706 4.71397 13.8561 5.51074 13.8561 6.46943C13.8561 7.42812 13.568 8.21461 12.9943 8.87772C12.418 9.54084 11.6385 10.0446 10.6558 10.3864C9.67304 10.7309 8.5591 10.9005 7.31138 10.9005H3.88208V8.74407L3.88465 8.74664Z" fill="#202020"/>
<path d="M22.6083 2.15918V12.9361C22.6083 13.6069 22.7807 14.1544 23.1229 14.5759C23.465 15 23.9976 15.2107 24.7179 15.2107C25.4382 15.2107 25.9682 15 26.3129 14.5759C26.6551 14.1518 26.8274 13.6069 26.8274 12.9361V2.15918H32.1013V13.4167C32.1013 14.6144 31.9058 15.6245 31.5147 16.447C31.1237 17.2695 30.5835 17.9326 29.8966 18.4338C29.2097 18.9375 28.4225 19.3051 27.5349 19.5364C26.6473 19.7677 25.7083 19.8834 24.7179 19.8834C23.7274 19.8834 22.7884 19.7677 21.9009 19.5364C21.0133 19.3051 20.2261 18.9375 19.5392 18.4338C18.8523 17.93 18.3121 17.2695 17.921 16.447C17.53 15.6245 17.3345 14.6144 17.3345 13.4167V2.15918H22.6083Z" fill="#202020"/>
<path d="M40.8274 2.15918V18.9247H35.3374V2.15918H40.8274ZM38.9802 18.9247V14.3728H41.6892C42.1523 14.3728 42.6231 14.3343 43.1041 14.252C43.5826 14.1724 44.0226 14.0053 44.4239 13.7483C44.8226 13.4938 45.1468 13.1109 45.3938 12.5994C45.6407 12.0879 45.7642 11.4017 45.7642 10.5407C45.7642 9.67963 45.6407 8.99338 45.3938 8.48191C45.1468 7.97044 44.8226 7.58748 44.4239 7.33302C44.0251 7.07857 43.5852 6.90894 43.1041 6.82926C42.6256 6.74959 42.1523 6.70846 41.6892 6.70846H38.9802V2.15918H41.9284C43.8785 2.15918 45.5533 2.49331 46.9502 3.16413C48.3497 3.83496 49.4199 4.79365 50.1634 6.03764C50.9069 7.28419 51.2773 8.7852 51.2773 10.5407C51.2773 12.2961 50.9069 13.7791 50.1634 15.0308C49.4199 16.2851 48.3497 17.2463 46.9502 17.9172C45.5507 18.588 43.8785 18.9221 41.9284 18.9221H38.9802V18.9247Z" fill="#202020"/>
<path d="M53.4361 6.90077C53.9146 5.81614 54.5783 4.88058 55.4247 4.09924C56.2711 3.31789 57.2615 2.71903 58.3961 2.30266C59.5306 1.88885 60.7526 1.68066 62.0646 1.68066C63.3766 1.68066 64.6449 1.88885 65.7795 2.30266C66.914 2.71903 67.9045 3.31789 68.7508 4.09924C69.5972 4.88058 70.2533 5.81614 70.7163 6.90077C71.1794 7.98797 71.4109 9.20111 71.4109 10.5402C71.4109 11.8793 71.1845 13.1078 70.7266 14.2156C70.2713 15.3259 69.6281 16.2872 68.7972 17.102C67.9662 17.9167 66.9783 18.5438 65.8361 18.9808C64.6938 19.4203 63.4358 19.6388 62.0595 19.6388C60.6831 19.6388 59.4251 19.4203 58.2829 18.9808C57.1406 18.5413 56.1527 17.9141 55.3218 17.102C54.4908 16.2872 53.8477 15.3259 53.3923 14.2156C52.937 13.1053 52.708 11.8793 52.708 10.5402C52.708 9.20111 52.9473 7.9854 53.4283 6.90077H53.4361ZM58.7588 12.6966C59.0624 13.3186 59.4946 13.8018 60.0528 14.1462C60.6111 14.4906 61.2825 14.6603 62.0672 14.6603C62.8518 14.6603 63.5207 14.488 64.0815 14.1462C64.6398 13.8018 65.072 13.3212 65.3756 12.6966C65.6791 12.0746 65.8309 11.355 65.8309 10.5402C65.8309 9.72544 65.6869 8.98779 65.3987 8.37351C65.1106 7.75922 64.6913 7.28116 64.1407 6.93676C63.5902 6.59235 62.8981 6.42271 62.0672 6.42271C61.2851 6.42271 60.6137 6.59492 60.0528 6.93676C59.492 7.28116 59.0624 7.75922 58.7588 8.37351C58.4552 8.98779 58.3034 9.71002 58.3034 10.5402C58.3034 11.3704 58.4552 12.072 58.7588 12.6966Z" fill="#202020"/>
<path d="M99.8071 2.15918V18.9247H94.5332V2.15918H99.8071ZM97.9394 2.15918H101.127C102.773 2.15918 104.111 2.3905 105.143 2.85314C106.174 3.31578 106.933 3.97632 107.419 4.82963C107.906 5.68295 108.15 6.71103 108.15 7.90618C108.15 9.10133 107.906 10.1089 107.419 10.9725C106.931 11.8335 106.172 12.4966 105.143 12.9592C104.111 13.4219 102.773 13.6532 101.127 13.6532H97.9394V9.46116H101.127C101.783 9.46116 102.277 9.32494 102.614 9.05507C102.948 8.78263 103.118 8.39966 103.118 7.90618C103.118 7.4127 102.951 7.02717 102.614 6.7573C102.279 6.48485 101.783 6.3512 101.127 6.3512H97.9394V2.15918Z" fill="#202020"/>
<path d="M116.064 2.15918V18.9247H110.551V2.15918H116.064ZM127.355 2.15918L120.81 10.0163L127.715 18.9273H121.338L114.554 10.186L121.219 2.16175H127.358L127.355 2.15918Z" fill="#202020"/>
<path d="M134.883 14.398L135.289 15.5957L133.468 18.9242H127.474L136.943 0.960938L146.413 18.9242H140.419L138.644 15.7628L139.004 14.398L136.943 9.77421L134.883 14.398ZM132.557 12.9844H141.428V16.7678H132.557V12.9844Z" fill="#202020"/>
<path d="M73.4097 18.9235H92.3519L82.8795 15.5488L73.4097 18.9235Z" fill="#EB590D"/>
<path d="M92.3519 4.73177L82.8795 0L73.4097 4.73177V18.9245L82.8795 0.95869L92.3519 18.9245V4.73177Z" fill="#EB590D"/>
<path d="M82.9286 8.41699L80.9014 12.4856L82.8797 11.7146L84.9224 12.5113L82.9286 8.41699Z" fill="#EB590D"/>
</svg>
